<?xml version="1.0" encoding="UTF-8"?>
<!DOCTYPE svg PUBLIC "-//W3C//DTD SVG 1.1//EN" "http://www.w3.org/Graphics/SVG/1.1/DTD/svg11.dtd">
<!-- Creator: CorelDRAW 2020 (64-Bit) -->
<svg xmlns="http://www.w3.org/2000/svg" xml:space="preserve" width="279px" height="36px" version="1.1" shape-rendering="geometricPrecision" text-rendering="geometricPrecision" image-rendering="optimizeQuality" fill-rule="evenodd" clip-rule="evenodd"
viewBox="0 0 434510 55960"
 xmlns:xlink="http://www.w3.org/1999/xlink"
 xmlns:xodm="http://www.corel.com/coreldraw/odm/2003">
 <g id="Слой_x0020_1">
  <metadata id="CorelCorpID_0Corel-Layer"/>
  <polygon fill="#0F111A" fill-rule="nonzero" points="122540,39700 130800,39700 130800,32690 134560,28610 142330,39700 152120,39700 140050,22520 150760,10550 141250,10550 130800,22520 130800,10550 122540,10550 "/>
  <polygon id="1" fill="#0F111A" fill-rule="nonzero" points="181400,10550 173620,10550 162250,27580 162250,10550 154260,10550 154260,39700 162040,39700 173400,22730 173400,39700 181400,39700 "/>
  <path id="2" fill="#0F111A" fill-rule="nonzero" d="M200720 33230c-4080,0 -7130,-3370 -7130,-7500 0,-4250 2830,-7620 7020,-7620 4080,0 7120,3430 7120,7620 0,4180 -2770,7500 -7010,7500zm-110 7130c8860,0 15280,-6690 15280,-14740 0,-8000 -6420,-13980 -13810,-13980 -5980,0 -9520,2990 -10610,4890 220,-2770 1690,-5760 7070,-6850l15990 -3150 -1300 -6530 -15610 2880c-10930,2010 -12240,11320 -12240,20070 0,11210 5380,17410 15230,17410z"/>
  <path id="3" fill="#0F111A" fill-rule="nonzero" d="M233530 40360c5270,0 9190,-2070 11910,-5440l-4730 -4190c-2290,2120 -4300,2990 -7070,2990 -3700,0 -6310,-1960 -7130,-5710l20290 0c50,-760 110,-1520 110,-2180 0,-8260 -4460,-15820 -14200,-15820 -8480,0 -14410,6850 -14410,15170 0,9030 6470,15180 15230,15180zm-7130 -17520c650,-3750 2880,-6200 6310,-6200 3480,0 5660,2500 6150,6200l-12460 0z"/>
  <path id="4" fill="#0F111A" fill-rule="nonzero" d="M249910 48410l8270 0 0 -12510c1950,2340 4670,4350 9080,4350 6910,0 13270,-5330 13270,-15070 0,-9840 -6470,-15170 -13270,-15170 -4300,0 -7070,2010 -9080,4730l0 -4190 -8270 0 0 37860zm15230 -15180c-3860,0 -7070,-3210 -7070,-8050 0,-4950 3210,-8160 7070,-8160 3860,0 7120,3210 7120,8050 0,5010 -3260,8160 -7120,8160z"/>
  <polygon id="5" fill="#0F111A" fill-rule="nonzero" points="283480,39700 291750,39700 291750,32690 295500,28610 303280,39700 313070,39700 300990,22520 311710,10550 302190,10550 291750,22520 291750,10550 283480,10550 "/>
  <path id="6" fill="#0F111A" fill-rule="nonzero" d="M326240 40360c9090,0 15830,-6800 15830,-15180 0,-8480 -6690,-15170 -15720,-15170 -9080,0 -15830,6800 -15830,15170 0,8490 6690,15180 15720,15180zm110 -7130c-4570,0 -7670,-3750 -7670,-8050 0,-4400 2830,-8050 7560,-8050 4570,0 7670,3760 7670,8050 0,4410 -2830,8050 -7560,8050z"/>
  <polygon id="7" fill="#0F111A" fill-rule="nonzero" points="371940,10550 345450,10550 345450,39700 353720,39700 353720,17620 363670,17620 363670,39700 371940,39700 "/>
  <polygon id="8" fill="#0F111A" fill-rule="nonzero" points="403880,10550 396100,10550 384730,27580 384730,10550 376740,10550 376740,39700 384520,39700 395880,22730 395880,39700 403880,39700 "/>
  <path id="9" fill="#0F111A" fill-rule="nonzero" d="M434510 10550l-15280 0c-7620,0 -11800,3920 -11800,9740 0,4510 2390,7290 6090,8700l-7450 10710 9570 0 6150 -9350 4450 0 0 9350 8270 0 0 -29150zm-13870 13820c-2990,0 -4840,-1310 -4840,-3650 0,-2390 1800,-3700 4790,-3700l5650 0 0 7350 -5600 0z"/>
  <path fill="#1AA7EC" d="M45280 55960c-12020,0 -22930,-2300 -30860,-6020 -7890,-3600 -13720,-8550 -14360,-15050 -70,-630 -80,-1270 -40,-1930 40,-630 130,-1270 270,-1900 300,-1400 1350,-2670 2490,-1720 1140,950 500,2910 670,4640 390,3970 5630,8130 12260,11060 7530,3530 17980,5710 29570,5710 11580,0 22030,-2180 29560,-5710 6630,-2930 11870,-7090 12260,-11060 170,-1730 -470,-3690 670,-4640 1140,-950 2190,320 2490,1720 140,630 230,1270 270,1900 40,660 30,1300 -40,1930 -640,6500 -6470,11450 -14360,15050 -7930,3720 -18840,6020 -30850,6020z"/>
 </g>
</svg>
