<?xml version="1.0" encoding="UTF-8"?>
<!DOCTYPE svg PUBLIC "-//W3C//DTD SVG 1.1//EN" "http://www.w3.org/Graphics/SVG/1.1/DTD/svg11.dtd">
<!-- Creator: CorelDRAW 2020 (64-Bit) -->
<svg xmlns="http://www.w3.org/2000/svg" xml:space="preserve" width="60px" height="31px" version="1.1" shape-rendering="geometricPrecision" text-rendering="geometricPrecision" image-rendering="optimizeQuality" fill-rule="evenodd" clip-rule="evenodd"
viewBox="0 0 20040 10280"
 xmlns:xlink="http://www.w3.org/1999/xlink"
 xmlns:xodm="http://www.corel.com/coreldraw/odm/2003">
 <g id="Слой_x0020_1">
  <metadata id="CorelCorpID_0Corel-Layer"/>
  <path fill="#0F111A" fill-rule="nonzero" d="M10020 0c2670,0 5090,510 6860,1340 1950,910 3160,2110 3160,3710 0,1610 -1210,2970 -3160,3880 -1770,830 -4190,1350 -6860,1350 -2670,0 -5100,-520 -6860,-1350 -1950,-910 -3160,-2270 -3160,-3880 0,-1600 1210,-2800 3160,-3710 1760,-830 4190,-1340 6860,-1340zm6490 2590c-1650,-770 -3950,-1250 -6490,-1250 -2550,0 -4850,480 -6500,1250 -1470,690 -2370,1620 -2370,2460 0,850 900,1700 2370,2380 1650,780 3950,1260 6500,1260 2540,0 4840,-480 6490,-1260 1470,-680 2380,-1530 2380,-2380 0,-840 -910,-1770 -2380,-2460z"/>
 </g>
</svg>
